<svg width="34" height="24" viewBox="0 0 34 24" fill="none" xmlns="http://www.w3.org/2000/svg">
<rect x="0.5" y="0.5" width="33" height="23" rx="2.5" fill="#EAFBE7" stroke="#C6F0C2"/>
<path d="M15.4062 16.5H17.0293L14.0234 8.04492H12.3242L9.32422 16.5H10.8535L11.5801 14.3145H14.6914L15.4062 16.5ZM13.0918 9.63281H13.1914L14.3398 13.1484H11.9316L13.0918 9.63281ZM21.8926 16.6055C23.5098 16.6055 24.5234 15.334 24.5234 13.3008C24.5234 11.2559 23.5156 9.99023 21.8926 9.99023C21.0137 9.99023 20.2754 10.418 19.9414 11.1152H19.8418V7.61719H18.3887V16.5H19.7891V15.4863H19.8887C20.252 16.1895 20.9961 16.6055 21.8926 16.6055ZM21.4355 11.2031C22.4258 11.2031 23.0293 11.9941 23.0293 13.3008C23.0293 14.6074 22.4316 15.3984 21.4355 15.3984C20.4395 15.3984 19.8184 14.5957 19.8184 13.3008C19.8184 12.0059 20.4453 11.2031 21.4355 11.2031Z" fill="#2F6846"/>
</svg>
